<?xml version="1.0" standalone="no"?>
<!DOCTYPE svg PUBLIC "-//W3C//DTD SVG 20010904//EN"
 "http://www.w3.org/TR/2001/REC-SVG-20010904/DTD/svg10.dtd">
<svg version="1.0" xmlns="http://www.w3.org/2000/svg"
 width="786.000000pt" height="260.000000pt" viewBox="0 0 786.000000 260.000000"
 preserveAspectRatio="xMidYMid meet">

<g transform="translate(0.000000,260.000000) scale(0.100000,-0.100000)"
fill="#000000" stroke="none">
<path d="M1120 2174 c-183 -39 -363 -152 -487 -304 -64 -78 -145 -239 -169
-335 -28 -112 -23 -438 7 -420 5 3 6 -1 3 -9 -8 -21 27 -117 39 -109 6 4 8 -1
4 -10 -3 -10 -2 -17 3 -17 5 0 12 -10 16 -22 10 -34 26 -51 34 -38 5 8 12 6
24 -5 9 -10 14 -20 11 -23 -3 -4 -10 -1 -14 7 -6 10 -10 9 -15 -5 -4 -11 -1
-23 9 -31 8 -7 10 -8 5 -1 -15 19 -12 32 5 18 11 -9 15 -9 15 -1 0 7 5 9 10 6
16 -10 12 11 -5 25 -8 7 -13 16 -10 20 6 10 -21 76 -34 85 -6 3 -7 13 -4 22 4
11 3 14 -5 9 -7 -4 -10 -2 -6 7 2 7 0 27 -7 43 -20 48 -24 93 -24 239 0 118 4
152 24 215 43 141 95 225 206 336 87 87 113 106 195 147 116 56 192 76 318 84
102 6 210 -10 309 -45 66 -24 174 -83 171 -94 -2 -5 -115 -123 -252 -264
l-248 -255 -27 17 c-14 10 -39 30 -55 46 -17 15 -35 28 -42 28 -6 0 -17 7 -24
15 -21 25 -114 65 -172 75 -198 32 -351 -138 -298 -331 14 -52 73 -114 136
-145 48 -23 63 -26 127 -22 82 6 156 36 232 96 l28 22 -28 30 -28 29 -36 -29
c-129 -103 -288 -95 -342 17 -70 144 64 300 212 248 21 -8 41 -15 44 -15 26
-7 65 -26 65 -32 0 -4 6 -8 14 -8 8 0 16 -4 18 -8 2 -4 30 -28 63 -54 33 -25
89 -76 124 -113 l64 -66 -61 -62 c-34 -34 -62 -65 -62 -69 0 -5 -2 -7 -5 -5
-9 5 -114 -107 -108 -116 3 -6 2 -7 -4 -4 -5 3 -41 -26 -79 -66 -38 -39 -60
-64 -48 -54 27 22 31 21 30 -5 -1 -15 6 -23 19 -26 16 -2 17 -1 5 7 -8 6 -16
22 -17 36 -2 23 0 24 13 10 9 -8 21 -15 27 -15 21 0 118 92 113 106 -3 8 0 11
8 8 18 -7 112 93 108 115 -2 14 -1 14 7 1 8 -12 18 -5 52 33 24 26 47 47 52
47 6 0 34 -18 63 -40 29 -22 58 -40 64 -40 5 0 10 -4 10 -9 0 -12 93 -58 113
-55 9 1 15 -1 12 -6 -5 -9 79 -30 120 -30 38 0 127 37 155 64 64 64 83 106 83
186 1 77 -24 139 -72 188 -55 54 -87 67 -176 67 -70 0 -88 -4 -145 -32 -36
-18 -81 -45 -100 -62 l-35 -30 26 -27 27 -27 34 26 c152 116 311 95 358 -48
21 -65 5 -121 -50 -176 -48 -48 -51 -49 -108 -49 -32 0 -74 5 -93 11 -62 21
-193 116 -279 203 l-85 86 293 293 c160 161 292 295 292 299 0 4 -39 32 -86
64 -158 105 -293 145 -491 143 -65 0 -147 -7 -183 -15z m735 -1124 c-3 -5 -11
-10 -16 -10 -6 0 -7 5 -4 10 3 6 11 10 16 10 6 0 7 -4 4 -10z m-710 -10 c-3
-5 -11 -10 -16 -10 -6 0 -7 5 -4 10 3 6 11 10 16 10 6 0 7 -4 4 -10z m670 0
c3 -5 1 -10 -4 -10 -6 0 -11 5 -11 10 0 6 2 10 4 10 3 0 8 -4 11 -10z m-1266
-56 c-6 -8 -15 -12 -18 -8 -3 4 0 9 7 11 6 3 9 10 6 15 -4 7 -2 8 5 4 9 -6 9
-11 0 -22z m30 -16 c-3 -28 1 -39 14 -32 6 4 9 3 4 -1 -12 -13 -47 -16 -47 -4
0 5 5 7 10 4 14 -9 12 8 -2 24 -10 11 -10 13 0 7 6 -4 12 -2 12 3 0 6 2 11 5
11 3 0 5 -6 4 -12z m526 -27 c-12 -12 -17 -13 -27 -2 -11 10 -10 11 5 6 10 -4
17 -2 17 4 0 11 -12 15 -40 12 -13 -2 -13 0 -1 8 9 6 23 5 38 -2 21 -9 22 -12
8 -26z m-35 -20 c0 -4 -6 -8 -14 -8 -8 0 -12 6 -9 14 5 13 23 9 23 -6z m-26
-29 c-6 -8 -44 20 -39 28 3 5 14 2 24 -8 10 -9 17 -18 15 -20z"/>
<path d="M1959 1826 l-27 -23 23 -29 c64 -82 120 -227 137 -356 13 -97 1 -237
-27 -330 -8 -27 -11 -48 -7 -48 4 0 3 -4 -3 -8 -18 -13 -53 -87 -47 -101 3 -9
0 -11 -8 -6 -8 5 -11 4 -7 -2 4 -6 -1 -14 -10 -17 -14 -6 -15 -9 -4 -15 10 -7
11 -13 1 -32 -11 -24 -11 -24 9 1 11 14 16 27 10 28 -5 2 -6 8 -3 13 3 6 11 6
20 -2 7 -6 11 -16 8 -21 -3 -5 3 -4 13 3 28 17 73 95 73 125 0 14 4 23 9 20 5
-4 19 36 31 86 23 95 31 299 16 378 -13 69 -59 196 -86 240 -5 8 -23 39 -40
68 -16 28 -36 52 -43 52 -6 0 -24 -11 -38 -24z m138 -781 c0 -8 -4 -12 -9 -9
-5 3 -6 10 -3 15 9 13 12 11 12 -6z m-9 -32 c-13 -3 -16 -12 -13 -38 4 -26 -1
-41 -20 -62 -13 -15 -25 -22 -26 -15 -3 22 -4 27 -13 41 -7 11 -3 13 22 8 19
-4 32 -2 32 3 0 6 -6 10 -12 10 -10 0 -9 3 1 9 7 5 10 14 7 20 -10 15 2 31 22
30 16 -1 16 -2 0 -6z"/>
<path d="M2039 932 c9 -7 10 -11 2 -15 -7 -4 -8 -5 0 -3 15 2 13 20 -3 24 -10
3 -10 2 1 -6z"/>
<path d="M5278 1796 c-197 -53 -272 -296 -139 -448 56 -63 120 -92 206 -92
153 -1 269 105 277 254 l3 55 -161 3 -161 2 -7 -31 c-3 -17 -6 -35 -6 -40 0
-5 51 -9 114 -9 64 0 118 -4 121 -10 8 -13 -17 -60 -47 -87 -32 -31 -90 -53
-136 -53 -102 0 -189 101 -179 207 14 135 152 211 272 149 l49 -26 28 27 c15
14 25 30 22 35 -14 22 -87 57 -139 67 -68 13 -57 13 -117 -3z"/>
<path d="M2398 1794 c-5 -4 -8 -126 -8 -271 l0 -263 45 0 45 0 0 110 0 110
114 0 c107 0 116 -1 130 -22 22 -32 20 -61 -7 -86 -19 -18 -35 -22 -91 -22
l-67 0 -15 -35 c-23 -57 -23 -57 85 -53 82 2 105 7 127 24 41 30 64 65 70 106
8 49 0 80 -32 118 -25 29 -26 34 -15 69 26 87 2 154 -69 195 -29 17 -56 21
-170 24 -74 2 -138 1 -142 -4z m281 -108 c27 -24 27 -68 0 -92 -17 -16 -37
-19 -108 -19 l-86 0 -3 54 c-5 83 -4 84 92 80 65 -3 89 -8 105 -23z"/>
<path d="M3740 1530 l0 -270 45 0 45 0 0 62 0 62 63 -62 c62 -62 63 -62 120
-62 31 0 57 3 57 7 0 4 -39 47 -87 95 l-88 88 95 95 95 95 -65 0 -64 0 -63
-62 -63 -62 0 142 0 142 -45 0 -45 0 0 -270z"/>
<path d="M4787 1765 c-20 -14 -47 -45 -59 -68 -21 -39 -23 -57 -26 -239 l-4
-198 46 0 46 0 0 130 0 130 40 0 c44 0 44 0 30 52 -9 29 -16 37 -38 40 -21 2
-26 8 -24 23 5 27 39 62 68 69 20 5 24 12 24 46 0 38 -1 40 -33 40 -18 0 -49
-11 -70 -25z"/>
<path d="M2985 1636 c-73 -33 -109 -95 -110 -186 0 -78 21 -121 81 -163 44
-31 96 -43 148 -33 40 8 44 21 22 65 -12 23 -20 27 -44 23 -73 -10 -135 66
-113 139 15 51 53 79 106 79 83 0 115 -60 115 -213 l0 -88 43 3 42 3 3 188 2
187 -44 0 c-29 0 -46 -5 -49 -14 -5 -12 -12 -11 -44 5 -43 22 -114 24 -158 5z"/>
<path d="M3450 1633 c-17 -12 -25 -13 -28 -5 -2 7 -23 12 -48 12 l-44 0 0
-190 0 -190 45 0 45 0 0 125 c0 120 1 127 25 150 34 35 93 34 126 -1 22 -24
24 -34 27 -150 l4 -124 44 0 44 0 0 128 c0 116 -2 133 -23 173 -41 78 -155
116 -217 72z"/>
<path d="M4384 1636 c-123 -54 -159 -212 -71 -313 97 -110 262 -90 329 40 25
49 27 131 5 173 -48 92 -172 139 -263 100z m155 -107 c29 -29 36 -52 32 -104
-1 -11 -17 -35 -36 -52 -47 -45 -101 -46 -143 -4 -36 37 -46 81 -28 125 19 45
52 66 102 66 34 0 49 -6 73 -31z"/>
<path d="M5785 1634 c-158 -82 -154 -301 7 -369 153 -63 318 92 265 248 -8 25
-26 57 -38 72 -50 58 -169 83 -234 49z m153 -99 c76 -64 28 -195 -70 -195 -30
0 -84 33 -98 61 -17 30 -15 84 4 110 38 54 115 65 164 24z"/>
<path d="M6645 1633 c-20 -11 -30 -12 -33 -4 -2 6 -24 11 -48 11 l-44 0 0
-190 0 -190 44 0 44 0 4 121 3 121 35 29 c19 16 42 29 52 29 15 0 18 8 18 45
0 40 -2 45 -22 45 -13 -1 -36 -8 -53 -17z"/>
<path d="M6842 1633 c-66 -32 -112 -109 -112 -188 0 -42 42 -127 75 -153 40
-32 96 -46 149 -38 51 8 52 11 32 60 -12 29 -18 33 -42 28 -37 -7 -89 23 -108
63 -20 41 -20 58 -2 94 35 67 123 83 175 31 30 -31 30 -32 33 -148 l3 -117 43
-3 42 -3 0 190 0 191 -45 0 c-25 0 -45 -4 -45 -9 0 -6 -16 -3 -35 5 -45 19
-122 18 -163 -3z"/>
<path d="M6110 1508 c0 -119 3 -137 23 -172 44 -78 122 -105 199 -70 31 14 43
15 46 6 2 -7 22 -12 48 -12 l44 0 0 190 0 190 -44 0 -44 0 -4 -126 c-3 -124
-3 -126 -31 -150 -37 -31 -78 -31 -116 2 l-31 26 0 124 0 124 -45 0 -45 0 0
-132z"/>
<path d="M7259 1453 l87 -188 50 -3 49 -3 64 138 c35 76 74 162 87 191 l24 52
-48 0 -48 0 -59 -131 c-33 -72 -63 -132 -66 -134 -3 -2 -33 55 -66 128 l-61
132 -50 3 -51 3 88 -188z"/>
<path d="M3521 982 c1 -75 2 -82 11 -52 5 19 8 49 6 67 -2 18 -2 33 2 33 3 0
21 -27 40 -59 48 -81 51 -68 4 18 -54 101 -64 100 -63 -7z"/>
<path d="M3720 1055 c0 -18 40 -127 51 -139 10 -11 -18 109 -31 135 -13 23
-20 24 -20 4z"/>
<path d="M3935 1062 c-3 -3 -5 -42 -5 -86 1 -78 1 -80 15 -49 12 28 19 32 57
36 l43 4 -47 1 -48 2 0 40 0 40 52 0 c28 0 48 3 44 7 -8 8 -103 13 -111 5z"/>
<path d="M4133 1055 c-13 -9 -23 -26 -23 -39 0 -26 19 -45 73 -69 34 -15 42
-26 38 -50 -1 -5 3 -6 8 -3 21 14 1 43 -47 69 -40 22 -52 34 -52 52 0 28 27
39 73 30 23 -5 29 -4 22 4 -19 20 -69 23 -92 6z"/>
<path d="M4270 1059 c0 -4 15 -9 33 -11 l32 -3 5 -75 c6 -87 20 -72 20 21 l0
59 37 0 c20 0 33 3 30 7 -10 9 -157 12 -157 2z"/>
<path d="M4520 1065 c0 -2 18 -41 40 -86 29 -61 41 -77 45 -63 3 10 20 47 38
81 17 34 28 65 24 69 -8 9 -5 13 -41 -61 l-29 -60 -26 57 c-14 32 -31 60 -38
62 -7 3 -13 4 -13 1z"/>
<path d="M4748 1054 c-40 -21 -62 -106 -38 -144 5 -8 10 -10 10 -5 6 97 9 110
31 128 53 43 112 -6 112 -93 0 -27 2 -50 4 -50 2 0 8 12 14 27 14 37 -5 115
-32 131 -31 19 -71 22 -101 6z"/>
<path d="M4946 1063 c-13 -13 -6 -129 9 -149 13 -17 14 -11 15 63 0 75 -7 102
-24 86z"/>
<path d="M5177 1063 c-11 -10 -8 -136 3 -153 8 -12 10 -11 10 8 0 12 5 22 11
22 8 0 8 4 0 14 -7 8 -11 32 -9 53 3 35 6 38 36 41 42 4 62 -12 62 -49 0 -22
-6 -32 -25 -39 -25 -9 -25 -11 -10 -40 20 -38 25 -38 19 0 -3 17 -1 30 5 30 6
0 18 11 26 24 18 27 7 69 -20 80 -28 10 -101 17 -108 9z"/>
<path d="M5454 1061 c-9 -9 -3 -161 6 -161 6 0 10 11 10 24 0 22 5 25 48 29
l47 3 -47 2 -48 2 0 45 0 45 50 0 c28 0 50 4 50 9 0 8 -107 10 -116 2z"/>
<path d="M5620 993 c0 -43 5 -85 10 -93 7 -10 10 12 10 72 0 48 -4 90 -10 93
-6 4 -10 -22 -10 -72z"/>
<path d="M5760 983 c0 -60 3 -83 10 -73 13 20 13 147 0 155 -6 4 -10 -26 -10
-82z"/>
<path d="M5835 1059 c-16 -6 -12 -8 16 -8 l36 -1 5 -64 c3 -35 10 -72 16 -82
9 -15 11 -1 12 64 l0 82 32 0 c17 0 28 3 24 8 -11 10 -117 11 -141 1z"/>
<path d="M6266 1063 c-8 -9 -6 -103 4 -133 5 -17 8 -19 9 -7 1 9 6 17 13 17 9
0 9 3 0 12 -7 7 -12 31 -12 55 l0 43 38 0 c45 0 62 -14 62 -52 0 -21 -6 -31
-26 -38 l-25 -10 21 -30 c25 -36 39 -41 17 -6 -15 23 -15 25 8 40 31 20 35 80
8 94 -23 12 -109 23 -117 15z"/>
<path d="M6464 1058 c-9 -14 7 -152 18 -163 6 -7 9 -7 8 0 -2 6 -2 22 -1 37 1
24 5 27 44 31 l42 4 -42 1 -43 2 0 40 0 40 50 0 c28 0 50 4 50 8 0 11 -120 11
-126 0z"/>
<path d="M3431 983 c1 -55 3 -70 9 -53 12 36 12 130 0 130 -6 0 -10 -32 -9
-77z"/>
<path d="M3650 1003 c0 -32 5 -65 10 -73 7 -10 10 7 10 58 0 41 -4 72 -10 72
-6 0 -10 -26 -10 -57z"/>
<path d="M3846 1003 c-10 -32 -20 -67 -23 -78 l-5 -20 15 20 c13 19 47 109 47
127 0 4 -4 8 -8 8 -5 0 -16 -26 -26 -57z"/>
<path d="M5080 985 c0 -43 4 -75 10 -75 6 0 10 32 10 75 0 43 -4 75 -10 75 -6
0 -10 -32 -10 -75z"/>
<path d="M6033 984 c3 -42 10 -81 15 -86 6 -6 8 -1 7 14 -1 13 -3 51 -4 86 -1
39 -5 62 -12 62 -9 0 -10 -22 -6 -76z"/>
<path d="M6172 981 c2 -44 6 -77 11 -74 12 7 9 153 -4 153 -7 0 -9 -27 -7 -79z"/>
<path d="M2732 953 c108 -2 288 -2 400 0 112 1 23 2 -197 2 -220 0 -311 -1
-203 -2z"/>
<path d="M6882 953 c108 -2 288 -2 400 0 112 1 23 2 -197 2 -220 0 -311 -1
-203 -2z"/>
<path d="M1000 870 c0 -5 5 -10 10 -10 6 0 10 5 10 10 0 6 -4 10 -10 10 -5 0
-10 -4 -10 -10z"/>
<path d="M2005 848 c4 -11 2 -18 -5 -18 -6 0 -8 -5 -4 -11 5 -8 10 -6 16 6 7
11 6 21 -2 28 -8 9 -10 8 -5 -5z"/>
<path d="M630 840 c0 -6 -4 -9 -9 -6 -5 4 -7 -4 -3 -16 4 -16 7 -18 10 -8 3 8
9 18 15 21 5 4 5 9 -2 13 -6 4 -11 2 -11 -4z"/>
<path d="M899 823 l-24 -28 28 24 c25 23 32 31 24 31 -2 0 -14 -12 -28 -27z"/>
<path d="M969 837 c6 -8 7 -18 3 -22 -4 -5 -1 -5 6 -1 10 6 10 11 1 22 -6 8
-14 14 -16 14 -3 0 0 -6 6 -13z"/>
<path d="M903 795 c-4 -5 -3 -7 2 -3 4 4 14 3 20 -2 9 -7 14 -7 18 3 6 15 -32
18 -40 2z"/>
<path d="M0 8 c0 -5 1770 -7 3933 -6 2162 2 3428 4 2812 5 -2968 7 -6745 7
-6745 1z"/>
</g>
</svg>
